<svg width="135" height="24" viewBox="0 0 135 24" fill="none" xmlns="http://www.w3.org/2000/svg">
<path d="M22.3098 20.9741L15.3005 0.966675H7.69057L0 22.9667H6.04131L7.19758 19.0268H15.8293L16.9497 22.9667H23L22.3009 20.9741H22.3098ZM8.50624 14.7518L10.7471 7.49693C10.8546 7.05313 10.9981 6.58215 11.1594 6.08401C11.258 5.55869 11.3835 5.04243 11.5179 4.53522C11.6613 5.09677 11.8137 5.72172 11.984 6.41007C12.1274 7.00784 12.226 7.37013 12.2798 7.49693L14.5475 14.7518H8.49727H8.50624Z" fill="#07B98A"/>
<path d="M32 0.75769V19.48L26 21.7577V0.75769H32Z" fill="#07B98A"/>
<path d="M32 19.5487V22.5487H26V21.5594L32 19.5487Z" fill="#6665DD"/>
<path d="M67 1.55793L64.4123 5.69216L62.4386 8.8482L52.886 12.5487L51.693 10.6385L46 1.54871H52.8246L55.7632 7.31632C55.7632 7.31632 55.8246 7.4086 55.8509 7.50089C56.0877 7.93461 56.2631 8.37756 56.3947 8.80206C56.4298 8.94048 56.4649 9.06968 56.4912 9.21733C56.5175 9.06045 56.5614 8.88512 56.6228 8.70978C56.7281 8.35911 56.9035 7.97153 57.1316 7.56549L57.2456 7.31632L60.1491 1.54871H66.9912L67 1.55793Z" fill="#07B98A"/>
<path d="M63 8.54871L59.7952 13.4113V23.5487H53.7805V13.4113L53 12.2209L63 8.54871Z" fill="#6665DD"/>
<path d="M80.2945 1.54871H72.6876L65 23.5487H71.0479L72.2037 19.6072H80.8321L81.9521 23.5487H88L80.2945 1.54871ZM73.5119 15.3304L75.7429 8.07259C75.8594 7.62861 75.9938 7.15744 76.155 6.65909C76.2536 6.13355 76.379 5.61708 76.5224 5.10966C76.6657 5.67144 76.8181 6.29665 76.9973 6.98528C77.1406 7.57424 77.2302 7.93668 77.284 8.07259L79.5508 15.3304H73.5119Z" fill="#6665DD"/>
<path d="M109.901 7.3749C109.171 5.85266 108.099 4.61131 106.676 3.64179C105.595 2.88973 104.324 2.35513 102.883 2.038C101.486 1.7118 99.027 1.54871 95.4865 1.54871H91V23.5487H96.5135C99.4685 23.5487 101.622 23.3856 102.973 23.0594C104.315 22.7695 105.55 22.2439 106.676 21.4919C108.099 20.5133 109.18 19.2719 109.901 17.7678C110.631 16.2365 111 14.5059 111 12.5668C111 10.6278 110.631 8.9062 109.901 7.36584V7.3749ZM103.135 17.1607C102.045 18.1484 100.297 18.6377 97.8829 18.6377H96.8559V6.48693H97.8829C100.279 6.48693 102.027 6.98528 103.135 7.97292C104.243 8.96057 104.793 10.5009 104.793 12.5849C104.793 14.669 104.243 16.2003 103.135 17.1607Z" fill="#6665DD"/>
<path d="M127.295 1.54871H119.688L112 23.5487H118.048L119.204 19.6072H127.832L128.952 23.5487H135L127.295 1.54871ZM120.512 15.3304L122.743 8.07259C122.859 7.62861 122.994 7.15744 123.155 6.65909C123.254 6.13355 123.379 5.61708 123.522 5.10966C123.666 5.67144 123.818 6.29665 123.997 6.98528C124.141 7.57424 124.23 7.93668 124.284 8.07259L126.551 15.3304H120.512Z" fill="#6665DD"/>
<path d="M43 1.54871V16.2588L37 18.5487V1.54871H43Z" fill="#07B98A"/>
<path d="M43 15.5487V22.5487H37V17.6777L43 15.5487Z" fill="#6665DD"/>
</svg>
