<svg width="17" height="17" viewBox="0 0 17 17" fill="none" xmlns="http://www.w3.org/2000/svg">
<path d="M11 3C11.9587 3.25784 12.8329 3.76308 13.5349 4.46509C14.2369 5.16711 14.7422 6.04127 15 7" stroke="#6665DD" stroke-width="1.30641" stroke-linecap="round" stroke-linejoin="round"/>
<path d="M10 5C10.4794 5.12892 10.9164 5.38154 11.2675 5.73255C11.6185 6.08355 11.8711 6.52063 12 7" stroke="#6665DD" stroke-width="1.30641" stroke-linecap="round" stroke-linejoin="round"/>
<path d="M6.42839 8.04271C6.97054 9.15109 7.86899 10.0455 8.97983 10.5826C9.0611 10.6211 9.15101 10.6378 9.24069 10.631C9.33037 10.6242 9.41674 10.5942 9.4913 10.5439L11.1269 9.45318C11.1993 9.40494 11.2825 9.37551 11.3691 9.36756C11.4557 9.3596 11.5429 9.37338 11.6228 9.40763L14.6827 10.719C14.7867 10.7632 14.8735 10.8399 14.93 10.9377C14.9866 11.0355 15.0098 11.149 14.9962 11.2611C14.8995 12.0179 14.5303 12.7135 13.9576 13.2177C13.3849 13.7218 12.6481 14 11.8852 14C9.52868 14 7.2687 13.0639 5.60241 11.3976C3.93611 9.7313 3 7.47132 3 5.11483C3.00004 4.35186 3.27818 3.61507 3.78234 3.04241C4.2865 2.46975 4.98211 2.10049 5.73892 2.00377C5.85104 1.99021 5.96453 2.01344 6.0623 2.06998C6.16006 2.12652 6.2368 2.21331 6.28096 2.31725L7.59352 5.37989C7.62747 5.4591 7.6413 5.54549 7.63379 5.63134C7.62627 5.7172 7.59764 5.79987 7.55044 5.87198L6.46355 7.53271C6.41408 7.60742 6.38484 7.69368 6.37868 7.78307C6.37251 7.87246 6.38964 7.96192 6.42839 8.04271V8.04271Z" stroke="#6665DD" stroke-width="1.30641" stroke-linecap="round" stroke-linejoin="round"/>
</svg>
