<svg width="17" height="17" viewBox="0 0 17 17" fill="none" xmlns="http://www.w3.org/2000/svg">
<path d="M8.5 15C12.0899 15 15 12.0899 15 8.5C15 4.91015 12.0899 2 8.5 2C4.91015 2 2 4.91015 2 8.5C2 12.0899 4.91015 15 8.5 15Z" stroke="#6665DD" stroke-width="1.30641" stroke-miterlimit="10"/>
<path d="M2 6H14" stroke="#6665DD" stroke-width="1.30641" stroke-linecap="round" stroke-linejoin="round"/>
<path d="M2 11H14" stroke="#6665DD" stroke-width="1.30641" stroke-linecap="round" stroke-linejoin="round"/>
<path d="M8.5 14C9.88071 14 11 11.3137 11 8C11 4.68629 9.88071 2 8.5 2C7.11929 2 6 4.68629 6 8C6 11.3137 7.11929 14 8.5 14Z" stroke="#6665DD" stroke-width="1.30641" stroke-miterlimit="10"/>
</svg>
